<svg width="43" height="39" viewBox="0 0 43 39" fill="none" xmlns="http://www.w3.org/2000/svg">
<path d="M42.6504 35.6047L41.454 27.4376C38.509 33.2372 24.7045 37.5623 18.1703 39L42.6504 35.6047Z" fill="#163E7C"/>
<path d="M41.086 25.4188L37.589 4.86353C14.5446 15.8019 19.8885 10.7671 25.441 6.88235C3.26173 16.7012 18.9988 18.4447 30.8706 21.2894C40.3682 23.5652 40.3497 24.0424 41.086 25.4188Z" fill="#FDC702"/>
<path d="M36.0242 0C16.661 3.81741 5.80761 12.8471 2.8013 16.8847L0.960693 5.41412L36.0242 0Z" fill="#EA7F21"/>
<path d="M6.39048 38.3577L3.62958 20.5553C5.93033 23.5835 19.5508 25.9694 26.5451 27.0706C32.1405 27.9515 30.1343 29.8235 28.3857 31.3835C26.6371 32.9435 22.7105 34.1059 20.7472 34.5953C22.7105 33.7694 26.2506 32.0442 24.7045 31.7506C23.1584 31.457 11.8509 36.033 6.39048 38.3577Z" fill="#238643"/>
</svg>
