<svg width="302" height="520" viewBox="0 0 302 520" fill="none" xmlns="http://www.w3.org/2000/svg">
<path d="M0 46L302 0.5V520H0V46Z" fill="#254A84"/>
<mask id="mask0" mask-type="alpha" maskUnits="userSpaceOnUse" x="0" y="1" width="302" height="519">
<rect y="1" width="302" height="519" fill="white"/>
</mask>
<g mask="url(#mask0)">
<path d="M408.468 525.865L390.681 404.924C346.899 490.806 141.671 554.855 44.5302 576.144L408.468 525.865Z" fill="#3B5C90"/>
<path d="M385.211 375.028L333.222 70.6353C-9.37174 232.616 70.0743 158.057 152.621 100.531C-177.111 245.933 56.8465 271.752 233.343 313.877C374.539 347.578 374.266 354.644 385.211 375.028Z" fill="#3B5C90"/>
<path d="M309.958 -1.38647C22.0918 55.1435 -139.263 188.859 -183.957 248.65L-211.321 78.7883L309.958 -1.38647Z" fill="#3B5C90"/>
<path d="M-130.598 566.631L-171.643 303.005C-137.439 347.849 65.0528 383.18 169.035 399.487C252.221 412.532 222.394 440.253 196.399 463.355C170.403 486.456 112.027 503.669 82.8392 510.916C112.027 498.686 164.657 473.139 141.671 468.79C118.686 464.442 -49.4188 532.205 -130.598 566.631Z" fill="#3B5C90"/>
</g>
</svg>
