<?xml version="1.0" standalone="no"?>
<!DOCTYPE svg PUBLIC "-//W3C//DTD SVG 20010904//EN"
 "http://www.w3.org/TR/2001/REC-SVG-20010904/DTD/svg10.dtd">
<svg version="1.0" xmlns="http://www.w3.org/2000/svg"
 width="688.000000pt" height="688.000000pt" viewBox="0 0 688.000000 688.000000"
 preserveAspectRatio="xMidYMid meet">
<metadata>
Created by potrace 1.14, written by Peter Selinger 2001-2017
</metadata>
<g transform="translate(0.000000,688.000000) scale(0.100000,-0.100000)"
fill="#000000" stroke="none">
<path d="M5630 6540 c-9 -6 -10 -10 -3 -10 6 0 15 5 18 10 8 12 4 12 -15 0z"/>
<path d="M5575 6530 l-30 -8 27 -1 c15 0 30 4 33 9 3 6 5 9 3 9 -2 -1 -16 -5
-33 -9z"/>
<path d="M5528 6524 c-4 -3 -26 -7 -50 -10 -23 -2 -54 -6 -68 -9 -14 -3 -45
-8 -70 -11 -25 -3 -56 -7 -70 -10 -14 -3 -36 -7 -50 -8 -57 -8 -116 -17 -130
-21 -8 -3 -35 -7 -60 -9 -45 -5 -223 -32 -270 -42 -14 -3 -38 -7 -55 -8 -16
-2 -43 -6 -60 -9 -16 -3 -50 -9 -75 -12 -25 -3 -58 -8 -75 -11 -33 -5 -59 -9
-125 -19 -25 -4 -58 -9 -75 -12 -16 -3 -43 -7 -60 -9 -16 -2 -46 -6 -65 -9
-19 -3 -60 -10 -90 -15 -30 -5 -73 -12 -95 -15 -46 -6 -91 -13 -121 -19 -12
-2 -45 -8 -75 -11 -69 -10 -86 -12 -129 -19 -19 -4 -48 -8 -65 -10 -16 -2 -41
-7 -55 -10 -14 -3 -45 -8 -70 -11 -25 -3 -56 -7 -70 -10 -24 -4 -259 -41 -330
-51 -19 -3 -64 -10 -100 -15 -36 -6 -78 -13 -95 -15 -16 -2 -41 -6 -55 -9 -14
-3 -45 -7 -70 -10 -25 -3 -56 -7 -70 -10 -14 -3 -43 -8 -65 -11 -22 -3 -62 -9
-90 -14 -27 -5 -68 -12 -90 -14 -22 -3 -51 -7 -64 -10 -12 -3 -42 -7 -65 -10
-22 -3 -57 -8 -76 -11 -19 -3 -105 -17 -190 -30 -145 -24 -199 -32 -260 -40
-14 -2 -27 -4 -30 -5 -3 -1 -8 -2 -12 -1 -4 0 -44 -6 -90 -14 -46 -7 -103 -17
-128 -20 -25 -3 -58 -9 -75 -12 -16 -3 -43 -7 -60 -9 -16 -1 -41 -5 -55 -9
-14 -3 -41 -7 -60 -10 -32 -3 -108 -15 -205 -31 -22 -4 -49 -8 -60 -9 -22 -2
-109 -15 -140 -21 -11 -3 -49 -9 -85 -14 -135 -19 -177 -26 -216 -34 -12 -2
-45 -7 -75 -11 -30 -3 -62 -9 -72 -11 -10 -3 -35 -7 -55 -9 -20 -2 -46 -6 -57
-8 -20 -5 -121 -20 -140 -22 -11 -1 -10 -16 11 -135 2 -14 6 -43 9 -65 3 -22
7 -51 10 -65 3 -14 8 -41 11 -60 3 -19 12 -73 19 -120 8 -47 17 -103 20 -125
4 -22 8 -51 11 -65 2 -14 7 -41 10 -60 3 -19 7 -46 9 -60 3 -14 7 -43 10 -65
4 -22 15 -92 25 -155 11 -63 22 -133 25 -155 3 -22 14 -92 25 -155 10 -63 21
-137 25 -164 3 -27 8 -52 10 -55 1 -3 6 -30 10 -60 4 -30 9 -63 11 -75 2 -12
6 -32 8 -46 11 -57 18 -106 18 -122 -1 -29 12 -21 54 30 208 256 512 536 869
801 61 44 115 86 122 91 60 50 565 376 623 403 8 4 29 16 45 27 17 10 50 30
75 43 25 13 61 34 80 45 47 28 86 49 350 183 225 115 317 159 560 267 25 11
97 41 160 67 63 26 124 51 135 56 45 19 415 160 430 163 9 1 201 67 245 84 8
3 18 6 23 7 4 2 8 3 10 5 1 1 9 3 17 5 8 2 34 10 58 19 23 8 44 16 47 16 3 0
10 2 17 5 7 2 47 13 88 25 41 11 84 25 95 29 18 8 265 78 304 86 9 2 37 10 63
18 26 8 49 12 52 9 4 -3 6 0 6 6 0 6 8 10 18 10 20 -1 30 2 172 37 58 15 114
29 125 32 11 2 25 5 30 7 11 3 70 15 95 20 72 13 130 29 130 37 0 10 -4 12
-12 3z"/>
<path d="M5950 5752 c-30 -14 -124 -59 -208 -99 -84 -40 -155 -73 -157 -73 -2
0 -60 -27 -130 -60 -70 -33 -128 -60 -130 -60 -2 0 -37 -16 -78 -35 -41 -19
-80 -35 -86 -35 -6 0 -11 -4 -11 -10 0 -5 -5 -10 -11 -10 -12 0 -68 -23 -110
-46 -14 -7 -28 -11 -31 -8 -3 2 -11 -2 -18 -11 -7 -8 -18 -15 -25 -15 -8 0
-46 -16 -86 -35 -41 -19 -79 -35 -86 -35 -7 0 -13 -5 -13 -12 0 -6 -3 -9 -6
-6 -5 5 -80 -25 -179 -72 -11 -5 -45 -19 -75 -31 -30 -11 -68 -27 -85 -34 -85
-38 -129 -55 -141 -55 -8 0 -14 -5 -14 -10 0 -6 -3 -9 -7 -8 -5 0 -17 -3 -28
-7 -127 -53 -330 -127 -495 -180 -41 -14 -89 -30 -107 -35 -18 -6 -40 -13 -50
-15 -10 -2 -40 -8 -67 -15 -125 -28 -206 -19 -212 24 -9 62 148 227 401 424
44 34 87 69 96 77 9 8 21 15 27 15 5 0 12 4 14 8 2 5 46 39 98 77 52 38 100
72 105 77 15 14 -96 -35 -302 -133 -57 -27 -107 -49 -113 -49 -5 0 -10 -5 -10
-10 0 -6 -3 -9 -8 -8 -10 3 -287 -138 -449 -228 -149 -84 -396 -236 -413 -254
-3 -3 -21 -17 -40 -30 -245 -168 -417 -384 -424 -529 -6 -111 63 -233 174
-311 19 -13 37 -27 40 -30 6 -6 25 -17 125 -73 39 -21 75 -40 80 -41 6 -2 32
-13 59 -25 66 -29 273 -103 366 -131 41 -12 82 -25 90 -28 8 -3 20 -6 25 -8 6
-1 60 -15 120 -32 106 -29 160 -42 170 -43 3 0 26 -6 52 -14 27 -8 59 -16 73
-19 14 -3 71 -16 127 -30 56 -14 112 -27 125 -30 20 -4 42 -9 143 -32 11 -3
31 -7 45 -10 14 -2 54 -12 90 -21 36 -8 72 -16 80 -17 8 -1 26 -5 40 -9 52
-13 156 -36 182 -41 15 -2 67 -14 115 -25 48 -11 131 -30 183 -42 52 -11 109
-25 127 -30 17 -6 44 -12 60 -15 15 -3 46 -10 68 -16 22 -6 47 -12 55 -13 8
-1 22 -5 30 -8 8 -3 47 -12 85 -22 39 -9 79 -19 90 -22 11 -2 29 -6 40 -8 11
-2 20 -4 20 -5 0 -1 7 -3 15 -5 8 -2 53 -14 100 -26 47 -11 90 -22 95 -23 71
-16 389 -110 500 -148 280 -95 382 -158 457 -280 33 -53 40 -59 34 -25 -3 12
-5 22 -6 22 -1 0 -3 14 -5 30 -5 36 -17 114 -22 135 -4 21 -15 90 -19 120 -1
14 -3 25 -4 25 -2 0 -4 14 -5 30 -2 17 -4 30 -5 30 -1 0 -3 9 -5 20 -10 56
-18 103 -21 130 -2 17 -6 39 -9 51 -2 12 -7 39 -10 60 -3 21 -10 59 -15 84 -5
25 -14 79 -21 120 -6 41 -13 84 -15 95 -3 11 -7 36 -10 55 -2 19 -8 49 -11 65
-6 30 -7 39 -17 103 -3 18 -8 47 -11 63 -4 17 -8 40 -10 52 -5 35 -15 100 -21
127 -2 14 -7 37 -9 53 -7 38 -24 138 -29 162 -2 11 -7 45 -12 75 -4 30 -8 57
-9 60 0 3 -4 27 -9 53 -4 27 -9 59 -12 70 -2 12 -7 38 -9 57 -3 19 -8 46 -12
60 -3 14 -6 28 -5 33 1 4 -5 40 -13 80 -8 39 -17 89 -20 111 -2 21 -7 46 -9
55 -3 9 -7 34 -10 56 -3 22 -7 50 -10 61 -2 12 -7 39 -10 60 -4 22 -11 64 -16
94 -5 30 -12 73 -15 95 -3 22 -10 60 -15 85 -12 60 -22 119 -26 150 -2 14 -6
41 -10 60 -7 35 -11 63 -19 110 -2 14 -6 34 -8 45 -3 11 -8 44 -12 72 -4 29
-10 55 -13 57 -4 2 -32 -8 -62 -22z"/>
<path d="M592 3203 c5 -32 11 -71 13 -88 2 -16 7 -46 10 -65 3 -19 8 -51 11
-70 3 -19 6 -44 8 -55 2 -11 7 -40 10 -65 4 -25 11 -70 16 -100 5 -30 12 -73
15 -95 3 -23 7 -52 10 -65 3 -13 7 -42 10 -65 3 -22 8 -51 10 -65 3 -14 7 -41
9 -60 3 -20 7 -47 10 -60 3 -14 8 -45 11 -70 3 -25 18 -128 35 -230 16 -102
32 -205 36 -230 3 -25 7 -56 10 -70 2 -14 6 -41 9 -60 3 -19 9 -60 15 -90 16
-93 34 -209 46 -300 2 -19 7 -46 9 -60 3 -14 7 -43 10 -65 3 -22 7 -51 10 -65
3 -14 8 -41 11 -60 3 -19 9 -60 14 -90 5 -30 12 -75 15 -100 3 -25 10 -70 15
-100 10 -61 19 -121 25 -160 2 -14 6 -38 9 -55 2 -16 8 -51 11 -77 6 -39 10
-45 24 -38 9 5 68 30 131 56 63 25 133 55 156 65 22 10 65 28 95 39 30 12 65
27 79 33 14 6 27 11 30 12 15 5 68 27 85 35 11 5 117 48 235 95 118 47 224 90
235 95 11 5 97 39 190 76 94 36 181 71 195 77 14 5 30 11 35 12 6 2 62 23 125
48 111 43 555 207 575 212 6 1 17 5 25 8 115 44 448 146 533 162 9 2 21 6 25
9 5 3 39 8 77 11 38 4 72 7 75 8 3 1 20 -4 38 -12 39 -16 43 -50 10 -82 -26
-24 -125 -99 -132 -99 -2 0 -33 -17 -67 -38 -62 -38 -218 -115 -348 -174 -35
-16 -62 -31 -59 -33 2 -3 36 5 74 16 38 11 74 21 79 23 67 18 119 34 220 67
66 22 127 43 135 46 8 3 17 7 20 8 3 1 19 7 35 14 17 6 44 17 60 23 17 6 50
20 75 31 25 10 61 26 80 34 19 8 42 18 50 23 8 5 53 28 99 52 106 55 235 153
349 265 202 199 227 319 89 424 -38 29 -160 84 -211 96 -6 1 -38 9 -71 18 -33
8 -69 17 -80 19 -32 6 -137 25 -175 31 -19 3 -46 7 -60 10 -14 3 -38 7 -55 9
-16 2 -50 8 -75 12 -25 4 -54 8 -65 10 -103 16 -154 25 -177 29 -50 9 -82 15
-173 30 -49 9 -101 18 -115 21 -14 3 -63 11 -110 19 -47 8 -96 17 -110 20 -14
3 -36 8 -50 10 -14 2 -50 9 -80 15 -30 6 -66 13 -80 15 -14 2 -50 9 -80 15
-30 6 -66 13 -80 16 -21 4 -55 11 -95 20 -5 1 -26 5 -45 9 -19 3 -64 12 -100
20 -36 8 -76 17 -90 20 -14 2 -43 9 -65 14 -85 19 -191 43 -206 46 -8 2 -44
10 -80 19 -61 16 -84 21 -138 32 -14 3 -28 7 -32 10 -4 2 -27 8 -51 13 -60 13
-273 69 -323 86 -23 8 -50 16 -61 18 -10 2 -26 7 -34 10 -8 3 -46 16 -85 27
-77 24 -82 25 -210 70 -49 17 -99 35 -110 40 -11 5 -60 25 -109 45 -179 73
-344 167 -427 245 -29 27 -54 50 -54 50 -1 0 2 -26 7 -57z"/>
<path d="M6602 2117 c-65 -122 -219 -295 -382 -427 -30 -25 -57 -47 -60 -50
-15 -15 -125 -94 -190 -136 -41 -27 -77 -52 -80 -55 -3 -3 -12 -9 -20 -12 -8
-4 -27 -15 -42 -25 -122 -79 -663 -362 -692 -362 -4 0 -40 -15 -79 -34 -135
-64 -416 -175 -642 -255 -66 -24 -127 -45 -135 -49 -8 -3 -17 -6 -20 -7 -3 0
-50 -16 -105 -35 -55 -19 -103 -35 -107 -36 -5 -1 -10 -3 -13 -4 -3 -1 -9 -4
-15 -5 -5 -1 -12 -4 -15 -5 -3 -1 -8 -3 -12 -4 -11 -3 -85 -27 -103 -33 -8 -3
-19 -7 -25 -8 -5 0 -17 -4 -25 -7 -8 -4 -24 -8 -35 -11 -11 -3 -92 -26 -180
-52 -88 -25 -167 -48 -175 -50 -8 -2 -29 -8 -47 -14 -17 -5 -34 -7 -37 -3 -3
3 -6 0 -6 -6 0 -7 -3 -11 -7 -10 -5 1 -21 -1 -38 -5 -16 -4 -39 -9 -50 -11
-11 -2 -40 -10 -65 -17 -25 -7 -49 -13 -55 -14 -49 -6 -135 -29 -135 -37 0 -5
4 -7 9 -4 5 3 30 8 57 11 67 7 112 13 159 21 22 4 56 8 75 9 19 1 49 5 65 8
27 6 76 13 148 22 73 10 195 27 217 30 24 4 75 11 142 20 18 3 53 7 78 10 25
3 61 8 80 11 19 4 49 8 65 10 45 5 93 11 165 23 36 6 88 13 116 16 28 3 61 7
73 10 13 2 49 7 80 11 31 3 65 8 76 11 11 2 38 6 60 8 22 3 72 9 110 15 87 12
140 20 184 25 19 2 50 7 70 10 20 3 52 8 71 10 19 3 49 7 65 10 34 5 108 16
145 20 14 1 43 5 65 8 43 7 100 15 161 22 51 7 113 15 144 20 14 2 43 7 65 9
22 3 51 8 65 11 13 2 52 7 85 10 33 3 67 8 75 10 15 4 59 10 135 20 22 2 51 7
65 10 14 3 45 7 70 9 25 3 59 7 75 10 17 2 53 7 80 11 28 3 77 10 110 15 91
14 183 27 253 34 52 5 56 15 44 98 -6 40 -14 91 -17 113 -3 22 -7 51 -10 65
-3 14 -7 41 -9 60 -6 43 -25 176 -31 210 -2 14 -7 45 -10 69 -5 45 -8 65 -21
141 -9 53 -11 69 -18 135 -3 28 -8 60 -11 72 -3 12 -7 41 -10 65 -3 24 -10 70
-15 103 -20 132 -23 150 -23 163 -1 22 -12 13 -35 -31z"/>
<path d="M2978 333 c7 -3 16 -2 19 1 4 3 -2 6 -13 5 -11 0 -14 -3 -6 -6z"/>
</g>
</svg>
